HIERARCHY
ROOT SpineBase
{
  OFFSET 0.000000 0.000000 0.000000
  CHANNELS 6 Xposition Yposition Zposition Zrotation Xrotation Yrotation
  JOINT SpineMid
  {
    OFFSET 0.000000 30.720687 0.000000
    CHANNELS 3 Zrotation Xrotation Yrotation
    JOINT SpineShoulder
    {
      OFFSET 0.304907 22.799568 -0.603102
      CHANNELS 3 Zrotation Xrotation Yrotation
      JOINT Neck
      {
        OFFSET 0.187426 7.548347 -0.500576
        CHANNELS 3 Zrotation Xrotation Yrotation
        JOINT Head
        {
          OFFSET 0.953439 14.050327 -0.371334
          CHANNELS 3 Zrotation Xrotation Yrotation
          End Site
          {
            OFFSET 0 0 0
          }
        }
      }
      JOINT ShoulderLeft
      {
        OFFSET -15.711771 -1.340242 -5.573611
        CHANNELS 3 Zrotation Xrotation Yrotation
        JOINT ElbowLeft
        {
          OFFSET -8.285268 -19.732285 -1.154509
          CHANNELS 3 Zrotation Xrotation Yrotation
          JOINT WristLeft
          {
            OFFSET 10.735647 -12.079702 -13.521416
            CHANNELS 3 Zrotation Xrotation Yrotation
            JOINT HandLeft
            {
              OFFSET 6.351669 -1.796307 -5.090238
              CHANNELS 3 Zrotation Xrotation Yrotation
              JOINT HandTipLeft
              {
                OFFSET 3.066699 -1.347964 -3.251718
                CHANNELS 3 Zrotation Xrotation Yrotation
                End Site
                {
                  OFFSET 0 0 0
                }
              }
              JOINT ThumbLeft
              {
                OFFSET 2.867781 1.249216 -1.705606
                CHANNELS 3 Zrotation Xrotation Yrotation
                End Site
                {
                  OFFSET 0 0 0
                }
              }
            }
          }
        }
      }
      JOINT ShoulderRight
      {
        OFFSET 16.771557 -2.538255 4.437067
        CHANNELS 3 Zrotation Xrotation Yrotation
        JOINT ElbowRight
        {
          OFFSET 6.554483 -22.633960 2.828477
          CHANNELS 3 Zrotation Xrotation Yrotation
          JOINT WristRight
          {
            OFFSET -2.035683 -19.030494 -9.584861
            CHANNELS 3 Zrotation Xrotation Yrotation
            JOINT HandRight
            {
              OFFSET -4.710531 -6.068919 -4.610454
              CHANNELS 3 Zrotation Xrotation Yrotation
              JOINT HandTipRight
              {
                OFFSET -1.008354 -6.347566 -3.786641
                CHANNELS 3 Zrotation Xrotation Yrotation
                End Site
                {
                  OFFSET 0 0 0
                }
              }
              JOINT ThumbRight
              {
                OFFSET -3.261251 2.279062 -0.492794
                CHANNELS 3 Zrotation Xrotation Yrotation
                End Site
                {
                  OFFSET 0 0 0
                }
              }
            }
          }
        }
      }
    }
  }
  JOINT HipLeft
  {
    OFFSET -6.700085 0.688291 -5.341268
    CHANNELS 3 Zrotation Xrotation Yrotation
    JOINT KneeLeft
    {
      OFFSET -5.736754 -35.456794 -1.747710
      CHANNELS 3 Zrotation Xrotation Yrotation
      JOINT AnkleLeft
      {
        OFFSET -4.270370 -35.407319 11.331555
        CHANNELS 3 Zrotation Xrotation Yrotation
        JOINT FootLeft
        {
          OFFSET 0.925999 -7.590192 -5.829871
          CHANNELS 3 Zrotation Xrotation Yrotation
          End Site
          {
            OFFSET 0 0 0
          }
        }
      }
    }
  }
  JOINT HipRight
  {
    OFFSET 7.847365 0.678745 -1.660202
    CHANNELS 3 Zrotation Xrotation Yrotation
    JOINT KneeRight
    {
      OFFSET 2.412385 -31.908689 2.687648
      CHANNELS 3 Zrotation Xrotation Yrotation
      JOINT AnkleRight
      {
        OFFSET -3.575362 -38.675985 9.695035
        CHANNELS 3 Zrotation Xrotation Yrotation
        JOINT FootRight
        {
          OFFSET 3.612455 -3.569684 -12.953368
          CHANNELS 3 Zrotation Xrotation Yrotation
          End Site
          {
            OFFSET 0 0 0
          }
        }
      }
    }
  }
}
MOTION
Frames: 10
Frame Time: 0.033333
-70.496100 76.738358 386.079722 5.373265 -1.471910 -27.198069 0.197174 -0.243702 27.448928 -0.044289 -0.086588 0.241282 -6.991733 8.285144 -0.647992 0.000000 0.000000 0.000000 10.437710 6.703952 -4.735822 -34.874151 -35.365149 -16.409682 -19.890974 3.673051 -29.336555 12.140878 6.530000 31.903898 0.000000 0.000000 0.000000 0.000000 0.000000 0.000000 -8.391816 5.498170 0.547824 9.916872 -2.940014 -3.754069 3.825487 -8.215315 2.462556 -5.610956 1.711070 0.331845 0.000000 0.000000 0.000000 0.000000 0.000000 0.000000 0.473629 -2.520494 27.814243 -4.717667 7.016686 -0.651701 26.130491 26.280619 -17.828424 0.000000 0.000000 0.000000 -0.767249 3.723057 27.810222 1.376128 -1.353518 1.304751 -17.384819 -28.464095 -24.456128 0.000000 0.000000 0.000000
-69.782331 76.791500 386.237942 4.606821 -1.742396 -27.144375 0.157414 -0.403910 27.382878 -0.012119 -0.157030 0.216310 -7.390818 9.275780 -0.521359 0.000000 0.000000 0.000000 9.627845 6.482624 -4.145994 -34.620988 -35.027942 -16.093862 -20.097067 3.571948 -27.272307 12.697310 5.891511 30.251186 0.000000 0.000000 0.000000 0.000000 0.000000 0.000000 -8.914410 5.238260 0.312282 11.502575 -2.800474 -3.449985 5.738588 -8.279279 1.523749 -6.420997 2.690183 0.574172 0.000000 0.000000 0.000000 0.000000 0.000000 0.000000 0.201290 -2.043778 27.711308 -4.070102 6.728910 -0.713676 26.382875 26.021650 -17.890885 0.000000 0.000000 0.000000 -1.150024 3.833038 27.697969 2.290712 -1.124628 1.334585 -15.473335 -25.884668 -22.646824 0.000000 0.000000 0.000000
-69.204457 76.807521 386.588382 3.700884 -2.346142 -27.765713 -0.068318 -0.667281 27.993657 -0.113243 -0.339428 0.179021 -7.956685 10.538082 -0.248624 0.000000 0.000000 0.000000 8.696025 6.573542 -3.466472 -34.054815 -34.899787 -16.315555 -22.136512 2.074073 -23.549507 14.413193 7.047533 25.898984 0.000000 0.000000 0.000000 0.000000 0.000000 0.000000 -8.729291 5.255216 0.094661 12.463472 -3.355438 -2.850507 7.107052 -7.187067 0.375198 -7.437768 3.007052 1.192501 0.000000 0.000000 0.000000 0.000000 0.000000 0.000000 -0.286543 -1.345937 28.304890 -2.883698 6.636358 -0.748876 26.615537 25.175803 -18.164839 0.000000 0.000000 0.000000 -1.539701 4.998833 28.327121 2.938104 -1.334933 1.347308 -16.102950 -27.277452 -23.123713 0.000000 0.000000 0.000000
-68.711941 76.669235 387.121825 2.661840 -3.195081 -28.714027 -0.236121 -0.875299 28.924342 -0.234137 -0.505984 0.137546 -8.697329 11.527031 0.131513 0.000000 0.000000 0.000000 7.394049 6.755676 -2.681904 -32.958490 -34.614039 -16.581546 -24.609057 -0.300939 -19.249549 16.749261 9.238689 21.413951 0.000000 0.000000 0.000000 0.000000 0.000000 0.000000 -8.753087 5.272052 -0.185099 13.070560 -3.391819 -1.941461 8.420250 -6.652000 -0.278642 -8.710868 5.511391 1.202521 0.000000 0.000000 0.000000 0.000000 0.000000 0.000000 -1.087478 -0.501432 29.247851 -1.114997 6.657037 -0.755379 26.506711 24.074088 -18.360850 0.000000 0.000000 0.000000 -1.970335 5.983632 29.263122 3.861846 -1.053945 1.387933 -15.676890 -26.867767 -22.693862 0.000000 0.000000 0.000000
-68.349471 76.461860 387.764103 1.557789 -4.210539 -30.093197 -0.397302 -1.101092 30.273560 -0.403093 -0.665200 0.091445 -10.635466 12.165893 0.751116 0.000000 0.000000 0.000000 6.290048 7.060899 -1.894834 -32.506354 -34.809419 -17.473686 -25.973724 -2.104997 -14.483602 18.049558 9.115907 16.077791 0.000000 0.000000 0.000000 0.000000 0.000000 0.000000 -8.816875 5.025718 -0.606511 13.237296 -2.477701 -0.744540 9.776824 -7.092417 -0.175808 -9.431023 5.480448 1.124556 0.000000 0.000000 0.000000 0.000000 0.000000 0.000000 -1.892842 0.291086 30.678079 0.896240 7.043396 -0.769195 25.961895 22.845664 -18.324868 0.000000 0.000000 0.000000 -2.463730 7.570138 30.688672 4.562691 -1.021302 1.409483 -14.569168 -25.272957 -21.695372 0.000000 0.000000 0.000000
-68.144678 76.237089 388.475939 0.465715 -5.356235 -31.490637 -0.470366 -1.187784 31.625514 -0.453477 -0.750439 0.053712 -11.491863 13.127413 1.261976 0.000000 0.000000 0.000000 4.444950 7.493207 -1.066404 -31.551940 -35.242037 -18.891266 -26.493555 -3.292058 -10.315207 18.531891 8.396917 12.243833 0.000000 0.000000 0.000000 0.000000 0.000000 0.000000 -8.870969 4.883311 -0.984431 12.979823 -1.162278 0.412179 9.596672 -7.526243 0.848958 -7.524582 4.670959 -0.649017 0.000000 0.000000 0.000000 0.000000 0.000000 0.000000 -2.847071 1.153080 32.149651 3.099808 7.601911 -0.769405 25.374922 21.258332 -18.340938 0.000000 0.000000 0.000000 -2.911422 9.420131 32.162164 5.021878 -0.925091 1.398428 -13.567348 -23.855064 -21.132428 0.000000 0.000000 0.000000
-68.495072 76.362961 389.218756 -1.883510 -5.908395 -33.116565 -0.432319 -1.068903 33.066448 -0.257492 -0.657300 -0.040859 -11.283068 13.849908 1.640320 0.000000 0.000000 0.000000 3.290567 9.639229 -1.224061 -32.105928 -39.791259 -24.050537 -25.537960 -3.595327 -3.219439 18.435576 7.775737 7.417374 0.000000 0.000000 0.000000 0.000000 0.000000 0.000000 -8.858598 5.282008 -0.948016 13.588931 -0.826133 1.319968 10.298618 -8.238613 1.006968 -8.583079 4.683408 -0.104915 0.000000 0.000000 0.000000 0.000000 0.000000 0.000000 -1.535737 2.596817 33.650974 4.024984 8.739943 -0.844689 25.515109 18.781125 -18.461665 0.000000 0.000000 0.000000 -1.242436 12.045358 33.718003 4.577943 -0.905690 1.309139 -13.156138 -23.389957 -22.252093 0.000000 0.000000 0.000000
-68.542307 75.342689 389.909617 -2.393494 -6.863446 -31.947623 -0.385435 -0.832789 31.851981 -0.104935 -0.546009 -0.043223 -9.708224 15.849948 1.597640 0.000000 0.000000 0.000000 3.548979 8.944582 -0.697548 -33.092198 -38.559030 -22.971143 -25.830252 -4.047160 -3.166393 18.148030 6.839497 5.948991 0.000000 0.000000 0.000000 0.000000 0.000000 0.000000 -8.883451 4.592285 -1.399121 12.946539 1.127249 1.928359 10.934033 -9.823179 1.926472 -9.144816 2.634436 0.079614 0.000000 0.000000 0.000000 0.000000 0.000000 0.000000 -3.182555 3.575631 32.553484 6.297250 8.589864 -0.674894 24.821190 17.512660 -18.503196 0.000000 0.000000 0.000000 -1.258359 12.910241 32.488285 5.301077 -0.267665 1.383474 -8.842568 -13.840278 -17.691650 0.000000 0.000000 0.000000
-68.152565 73.543241 390.577596 -1.290899 -8.143356 -29.043725 -0.240669 -0.494534 29.046551 0.010004 -0.324641 0.030586 -6.957995 18.408705 0.938584 0.000000 0.000000 0.000000 3.069231 6.187760 0.604905 -32.935289 -33.278584 -17.541509 -27.133637 -3.806228 -9.034933 18.602180 6.538375 8.863028 0.000000 0.000000 0.000000 0.000000 0.000000 0.000000 -9.220807 3.324214 -2.076715 11.399453 3.345986 2.365293 10.440161 -13.340032 6.198845 -8.255710 2.741076 -3.031030 0.000000 0.000000 0.000000 0.000000 0.000000 0.000000 -7.146379 4.497239 29.981262 9.251914 7.220908 -0.229014 23.676797 17.464769 -18.516843 0.000000 0.000000 0.000000 -3.373796 12.452051 29.724060 7.279333 0.498503 1.622601 -8.597560 -12.065505 -16.432585 0.000000 0.000000 0.000000
-67.681188 71.136120 391.035717 0.438051 -10.983719 -26.752137 0.221066 -0.564703 26.968148 0.221136 -0.406550 0.150983 -0.861717 22.430371 -0.904207 0.000000 0.000000 0.000000 0.598517 -4.855405 6.785641 -28.620826 -13.837021 -7.568624 -29.783917 -4.985312 -17.238003 20.592819 8.403117 12.426339 0.000000 0.000000 0.000000 0.000000 0.000000 0.000000 -9.478532 3.802458 -2.572294 9.519461 7.289297 2.392230 12.870310 -15.125815 5.535009 -13.892496 -3.828674 2.797361 0.000000 0.000000 0.000000 0.000000 0.000000 0.000000 -11.824416 6.948252 28.410056 11.181321 5.382354 0.280356 22.650292 18.396130 -18.421685 0.000000 0.000000 0.000000 -7.125389 13.129269 27.896386 9.305154 1.116435 1.856448 -9.134640 -13.060906 -17.461709 0.000000 0.000000 0.000000
